<?xml version="1.0" standalone="no"?><!DOCTYPE svg PUBLIC "-//W3C//DTD SVG 1.1//EN" "http://www.w3.org/Graphics/SVG/1.1/DTD/svg11.dtd"><svg t="1507359222698" class="icon" style="" viewBox="0 0 1029 1024" version="1.1" xmlns="http://www.w3.org/2000/svg" p-id="2381" xmlns:xlink="http://www.w3.org/1999/xlink" width="200.9765625" height="200"><defs><style type="text/css"></style></defs><path d="M753.429 839.004c-43.1 0-78.042 33.971-78.042 77.377 0 43.431 34.942 78.61 78.042 78.61 43.097 0 78.041-35.18 78.041-78.61C831.47 872.974 796.526 839.004 753.429 839.004zM328.326 839.004c-43.123 0-75.671 32.76-75.671 76.168 0 43.429 32.549 78.61 75.671 78.61 43.099 0 78.041-35.182 78.041-78.61C406.367 871.763 371.425 839.004 328.326 839.004zM1022.804 529.942l-0.829-268.522c0 0-3.889-80.815-73.537-80.815L210.931 181.6l-16.262-39.637c0 0-16.453-117.963-95.727-117.963 0 0-95.75 0-95.75 116.185l80.294-0.118c0 0 98.333 565.8 98.333 582.846 0 21.383 17.165 77.377 38.405 77.377l725.369 0c21.218 0 38.404-36.649 38.404-58.009 0-21.384-17.187-58.058-38.404-58.058L273.067 684.223l-19.084-77.165 693.651-3.058C947.634 604.001 1022.804 604.902 1022.804 529.942zM330.697 490.755c0 21.36-17.187 38.689-38.405 38.689l-1.208 0c-21.217 0-38.428-17.329-38.428-38.689l0-38.689c0-21.383 17.211-38.712 38.428-38.712l1.208 0c21.218 0 38.405 17.33 38.405 38.712L330.697 490.755zM330.697 335.976c0 21.36-17.187 38.688-38.405 38.688L253.84 374.664c-21.193 0-38.404-17.329-38.404-38.688l0-38.712c0-21.36 17.211-38.689 38.404-38.689l38.452 0c21.218 0 38.405 17.329 38.405 38.689L330.697 335.976zM484.432 490.755c0 21.36-17.211 38.689-38.428 38.689l-38.452 0c-21.193 0-38.404-17.329-38.404-38.689l0-38.689c0-21.383 17.211-38.712 38.404-38.712l38.452 0c21.217 0 38.428 17.33 38.428 38.712L484.432 490.755zM484.432 335.976c0 21.36-17.211 38.688-38.428 38.688l-38.452 0c-21.193 0-38.404-17.329-38.404-38.688l0-38.712c0-21.36 17.211-38.689 38.404-38.689l38.452 0c21.217 0 38.428 17.329 38.428 38.689L484.432 335.976zM638.145 490.755c0 21.36-17.212 38.689-38.427 38.689l-38.43 0c-21.217 0-38.428-17.329-38.428-38.689l0-38.689c0-21.383 17.211-38.712 38.428-38.712l38.43 0c21.215 0 38.427 17.33 38.427 38.712L638.145 490.755zM638.145 335.976c0 21.36-17.212 38.688-38.427 38.688l-38.43 0c-21.217 0-38.428-17.329-38.428-38.688l0-38.712c0-21.36 17.211-38.689 38.428-38.689l38.43 0c21.215 0 38.427 17.329 38.427 38.689L638.145 335.976zM791.858 490.755c0 21.36-17.212 38.689-38.429 38.689l-38.428 0c-21.217 0-38.429-17.329-38.429-38.689l0-38.689c0-21.383 17.212-38.712 38.429-38.712l38.428 0c21.217 0 38.429 17.33 38.429 38.712L791.858 490.755zM791.858 335.976c0 21.36-17.212 38.688-38.429 38.688l-38.428 0c-21.217 0-38.429-17.329-38.429-38.688l0-38.712c0-21.36 17.212-38.689 38.429-38.689l38.428 0c21.217 0 38.429 17.329 38.429 38.689L791.858 335.976zM945.571 490.755c0 21.36-17.211 38.689-38.43 38.689l-38.428 0c-21.218 0-38.429-17.329-38.429-38.689l0-38.689c0-21.383 17.211-38.712 38.429-38.712l38.428 0c21.219 0 38.43 17.33 38.43 38.712L945.571 490.755zM945.571 335.976c0 21.36-17.211 38.688-38.43 38.688l-38.428 0c-21.218 0-38.429-17.329-38.429-38.688l0-38.712c0-21.36 17.211-38.689 38.429-38.689l38.428 0c21.219 0 38.43 17.329 38.43 38.689L945.571 335.976z" p-id="2382"></path></svg>