<?xml version="1.0" standalone="no"?><!DOCTYPE svg PUBLIC "-//W3C//DTD SVG 1.1//EN" "http://www.w3.org/Graphics/SVG/1.1/DTD/svg11.dtd"><svg t="1505891425676" class="icon" style="" viewBox="0 0 1024 1024" version="1.1" xmlns="http://www.w3.org/2000/svg" p-id="3165" xmlns:xlink="http://www.w3.org/1999/xlink" width="200" height="200"><defs><style type="text/css"></style></defs><path d="M261.744329 618.102526 636.650975 243.194858l160.420643 160.420643L422.167019 778.523169 261.744329 618.102526zM653.916197 333.614194l-17.579377-17.579377-301.750485 301.752532 17.574261 17.582447L653.916197 333.614194zM689.078021 368.770901l-17.579377-17.579377-301.755602 301.752532 17.579377 17.582447L689.078021 368.770901zM724.234729 403.927609l-17.579377-17.577331-301.752532 301.752532 17.577331 17.579377L724.234729 403.927609zM708.463534 172.369789c19.704784-19.702738 51.515281-19.840884 71.051219-0.304945l88.432075 88.432075c19.533892 19.533892 19.395746 51.346435-0.306992 71.049173l-54.630225 54.635341L653.833309 227.003084 708.463534 172.369789zM249.39814 638.986159 401.280316 790.869359l-133.086088 47.263443-66.057485-66.059532L249.39814 638.986159zM242.977917 846.36837l-77.219709 28.137851 28.142967-77.216639L242.977917 846.36837z" p-id="3166" fill="#ffffff"></path></svg>